<svg width="24" height="24" viewBox="0 0 24 24" fill="none" xmlns="http://www.w3.org/2000/svg">
<g id="Loading">
<path id="Ellipse 4" d="M12 3C12 2.44772 11.5512 1.99481 11.0016 2.04993C8.71915 2.27888 6.57309 3.28771 4.93526 4.92261C3.06041 6.79411 2.00475 9.33305 2.00002 11.9821C1.99528 14.6312 3.04184 17.1739 4.90998 19.0521C6.77812 20.9303 9.31517 21.9905 11.9642 21.9999C14.6133 22.0094 17.1578 20.9674 19.0394 19.1026C20.9209 17.2378 21.9856 14.7027 21.9999 12.0537C22.0141 9.40464 20.9766 6.85821 19.1152 4.97335C17.4891 3.32677 15.3503 2.3026 13.0695 2.05733C12.5204 1.99828 12.0684 2.44796 12.0644 3.00023C12.0605 3.5525 12.5067 3.99697 13.0542 4.06973C14.8041 4.30232 16.4386 5.10931 17.6922 6.37868C19.1813 7.88657 20.0113 9.92371 19.9999 12.0429C19.9885 14.1622 19.1367 16.1903 17.6315 17.6821C16.1263 19.1739 14.0906 20.0075 11.9714 19.9999C9.85214 19.9924 7.8225 19.1442 6.32799 17.6417C4.83347 16.1391 3.99622 14.1049 4.00001 11.9857C4.0038 9.86644 4.84833 7.83528 6.34821 6.33809C7.61083 5.07772 9.25101 4.28246 11.0026 4.06239C11.5505 3.99355 12 3.55228 12 3Z" fill="url(#paint0_angular_4_74)"/>
</g>
<defs>
<radialGradient id="paint0_angular_4_74" cx="0" cy="0" r="1" gradientUnits="userSpaceOnUse" gradientTransform="translate(12 12) rotate(-90) scale(5.83333)">
<stop stop-color="white" stop-opacity="0"/>
<stop offset="1" stop-color="#512DE4"/>
</radialGradient>
</defs>
</svg>
